Coordinates
version=1
nRows=9
nColumns=36
inDegrees=yes

Units are S.I. units (second, meters, Newtons, ...)
If the header above contains a line with 'inDegrees', this indicates whether rotational values are in degrees (yes) or radians (no).

endheader
time	pelvis_tilt	pelvis_list	pelvis_rotation	pelvis_tx	pelvis_ty	pelvis_tz	hip_flexion_r	hip_adduction_r	hip_rotation_r	knee_angle_r	knee_angle_r_beta	ankle_angle_r	subtalar_angle_r	mtp_angle_r	hip_flexion_l	hip_adduction_l	hip_rotation_l	knee_angle_l	knee_angle_l_beta	ankle_angle_l	subtalar_angle_l	mtp_angle_l	lumbar_extension	lumbar_bending	lumbar_rotation	arm_flex_r	arm_add_r	arm_rot_r	elbow_flex_r	pro_sup_r	arm_flex_l	arm_add_l	arm_rot_l	elbow_flex_l	pro_sup_l
      0.00000000	     20.22774589	     -0.90187987	      1.73342995	     -0.67647693	      0.58623875	     -0.60245729	     75.03922683	     -7.15349238	     -0.60828445	     95.15868856	      1.66083243	      0.16548119	     -9.89429028	     -3.97583603	     75.60759994	     -8.39337616	      4.80535952	     96.43858097	      1.68317076	      1.64484297	     -7.78051289	     -3.97583603	    -35.71331164	      1.94934516	      0.23804798	      2.48804461	    -10.71376032	    -11.01160428	    131.43866125	    103.92041519	     -0.59559139	     -4.52523030	    -16.01503732	    130.78152960	     92.79454575
      0.01000000	     20.23550630	     -0.89197155	      1.73198015	     -0.67643339	      0.58625226	     -0.60247741	     75.03468231	     -7.15348100	     -0.57640763	     95.17722841	      1.66115601	      0.22495831	     -9.77173638	     -4.14441672	     75.59268416	     -8.39352080	      4.79259270	     96.44380005	      1.68326185	      1.68504357	     -7.70183988	     -4.14441672	    -35.72881723	      1.93246257	      0.24032785	      2.45986539	    -10.71665569	    -10.94663100	    131.47662341	    103.23717099	     -0.59691039	     -4.51955085	    -15.96634459	    130.87580676	     92.22899245
      0.02000000	     20.20573753	     -0.98191674	      1.70705542	     -0.67645871	      0.58626975	     -0.60241286	     75.02611453	     -7.07000606	     -0.70199041	     95.09313548	      1.65968831	     -0.19481252	    -10.41881243	     -4.38067787	     75.65646047	     -8.45175537	      4.85702298	     96.44839281	      1.68334201	      1.42907053	     -8.12643873	     -4.38067787	    -35.68861571	      1.97680078	      0.31200683	      2.45756506	    -10.70977024	    -11.01693281	    131.38140795	    103.09604221	     -0.56035352	     -4.45628816	    -16.00478919	    130.84332910	     92.33697872
      0.03000000	     20.20144226	     -0.93596027	      1.72270040	     -0.67643747	      0.58619774	     -0.60243078	     75.06516530	     -7.11125771	     -0.63884829	     95.15469130	      1.66076266	     -0.00931104	    -10.10021716	     -4.59581325	     75.65532346	     -8.42503552	      4.82069173	     96.45468449	      1.68345182	      1.54991407	     -7.89836391	     -4.59581325	    -35.67584349	      1.93347136	      0.27000014	      2.44529931	    -10.71334576	    -10.90918600	    131.49986962	    101.78665629	     -0.56692010	     -4.48860682	    -15.90887498	    130.96878687	     91.44331626
      0.04000000	     20.19799541	     -0.81609659	      1.71660500	     -0.67639429	      0.58615216	     -0.60242902	     75.11474013	     -7.15909997	     -0.48071791	     95.23307388	      1.66213070	      0.39322216	     -9.66448224	     -5.10290208	     75.60533018	     -8.38665476	      4.70100260	     96.44923762	      1.68335676	      1.84017571	     -7.66292142	     -5.10290208	    -35.69552697	      1.81436529	      0.14387479	      2.45127364	    -10.76212109	    -10.55874717	    131.90493722	     96.80674536	     -0.61665213	     -4.52916757	    -15.77220287	    131.49673415	     87.91248573
      0.05000000	     20.21240855	     -0.95880231	      1.70208328	     -0.67649173	      0.58623676	     -0.60233463	     75.04107800	     -7.06562883	     -0.66905151	     95.12361522	      1.66022028	     -0.08680097	    -10.23551623	     -5.44025817	     75.64865671	     -8.45871773	      4.84336038	     96.44894332	      1.68335162	      1.51457010	     -7.97159648	     -5.44025817	    -35.73489504	      1.95776209	      0.35435499	      2.42913846	    -10.69276747	    -11.23619363	    131.26294090	    105.19894666	     -0.49709773	     -4.42272786	    -16.00174373	    130.59259773	     94.33059929
      0.06000000	     20.24707273	     -0.97254524	      1.70619981	     -0.67654822	      0.58628366	     -0.60234565	     74.99754513	     -7.05629028	     -0.67263171	     95.11413224	      1.66005477	     -0.07302519	    -10.22775599	     -5.69170371	     75.61951330	     -8.45628403	      4.86546197	     96.45229077	      1.68341005	      1.50144452	     -7.96390489	     -5.69170371	    -35.81769361	      1.97024342	      0.29001077	      2.47585318	    -10.70222627	    -10.92589141	    131.60492717	    100.87322837	     -0.55931261	     -4.43935126	    -15.92308087	    131.01727535	     91.79503494
      0.07000000	     20.23766946	     -0.94408692	      1.70578429	     -0.67651321	      0.58626837	     -0.60232814	     75.01845092	     -7.06586042	     -0.63195975	     95.13067324	      1.66034347	     -0.02204556	    -10.15272870	     -5.75086269	     75.61839742	     -8.43847989	      4.85997982	     96.44470357	      1.68327762	      1.54243735	     -7.90683087	     -5.75086269	    -35.82834410	      1.92373131	      0.26980636	      2.43513546	    -10.74004619	    -10.86962212	    131.62468497	    100.59656189	     -0.59030478	     -4.46292433	    -15.83663864	    131.08338599	     91.46296451
      0.08000000	     20.22386705	     -0.91458869	      1.71285855	     -0.67650737	      0.58627485	     -0.60233083	     75.04371768	     -7.08059545	     -0.59093947	     95.14847606	      1.66065419	      0.06831774	     -9.99441760	     -5.82951259	     75.62170070	     -8.42025312	      4.82201702	     96.44344671	      1.68325569	      1.60709817	     -7.79753035	     -5.82951259	    -35.81733036	      1.87896163	      0.24111237	      2.44198464	    -10.74424610	    -10.79838749	    131.63449101	     99.94647209	     -0.55562955	     -4.49394215	    -15.72776221	    131.12341183	     90.96710662
